# xmcd CD database file
#
# Track frame offsets:
#	150
#	35790
#	65697
#	99687
#	113582
#
# Disc length: 1823 seconds
#
# Revision: 0
# Processed by: cddbd v1.4PL0 Copyright (c) Steve Scherf et al.
# Submitted via: CDex 1.51
#
DISCID=42071d05
DTITLE=Miles Davis Quartet - Nefertiti
DYEAR=1967
DGENRE=Jazz
TTITLE0=Nefertiti
TTITLE1=Fall
TTITLE2=Madness
TTITLE3=Riot
TTITLE4=Pinocchio
EXTD=YEAR: 1967
EXTT0=
EXTT1=
EXTT2=
EXTT3=
EXTT4=
PLAYORDER=
